<svg xmlns="http://www.w3.org/2000/svg" xmlns:xlink="http://www.w3.org/1999/xlink" width="500" zoomAndPan="magnify" viewBox="0 0 375 374.999991" height="500" preserveAspectRatio="xMidYMid meet" version="1.0"><defs><g/><clipPath id="4e9874afb4"><path d="M 14.207031 141.265625 L 74.957031 141.265625 L 74.957031 199.765625 L 14.207031 199.765625 Z M 14.207031 141.265625 " clip-rule="nonzero"/></clipPath><clipPath id="d7ef740ca8"><path d="M 14.207031 155 L 42 155 L 42 173 L 14.207031 173 Z M 14.207031 155 " clip-rule="nonzero"/></clipPath><clipPath id="f86bfca95f"><path d="M 29 141.265625 L 47 141.265625 L 47 168 L 29 168 Z M 29 141.265625 " clip-rule="nonzero"/></clipPath><clipPath id="07f471c5a9"><path d="M 34 141.265625 L 47 141.265625 L 47 168 L 34 168 Z M 34 141.265625 " clip-rule="nonzero"/></clipPath><clipPath id="f572211d03"><path d="M 58 162 L 74.957031 162 L 74.957031 173 L 58 173 Z M 58 162 " clip-rule="nonzero"/></clipPath><clipPath id="613fd735db"><path d="M 58 165 L 74.957031 165 L 74.957031 173 L 58 173 Z M 58 165 " clip-rule="nonzero"/></clipPath><clipPath id="79e055f534"><path d="M 39 184 L 47 184 L 47 199.765625 L 39 199.765625 Z M 39 184 " clip-rule="nonzero"/></clipPath><clipPath id="220aa86833"><path d="M 36 184 L 47 184 L 47 199.765625 L 36 199.765625 Z M 36 184 " clip-rule="nonzero"/></clipPath><clipPath id="4647cb7d8f"><path d="M 14.207031 161 L 42 161 L 42 173 L 14.207031 173 Z M 14.207031 161 " clip-rule="nonzero"/></clipPath></defs><rect x="-37.5" width="450" fill="#ffffff" y="-37.499999" height="449.999989" fill-opacity="1"/><rect x="-37.5" width="450" fill="#000000" y="-37.499999" height="449.999989" fill-opacity="1"/><g fill="#ffffff" fill-opacity="1"><g transform="translate(79.968948, 183.422801)"><g><path d="M 15.695312 0 L 21.527344 0 L 15.550781 -10.621094 C 23.113281 -12.816406 22.210938 -25.738281 13.03125 -25.738281 L 2.878906 -25.738281 L 2.878906 0 L 8.027344 0 L 8.027344 -9.828125 L 10.511719 -9.828125 Z M 8.027344 -14.832031 L 8.027344 -20.59375 L 12.5625 -20.59375 C 16.054688 -20.59375 16.054688 -14.832031 12.5625 -14.832031 Z M 8.027344 -14.832031 "/></g></g></g><g fill="#ffffff" fill-opacity="1"><g transform="translate(102.936991, 183.422801)"><g><path d="M 0.574219 0 L 6.40625 0 L 7.414062 -2.773438 L 15.949219 -2.773438 L 16.992188 0 L 22.789062 0 L 11.953125 -26.675781 L 11.410156 -26.675781 Z M 9.289062 -7.597656 L 11.699219 -14.292969 L 14.039062 -7.597656 Z M 9.289062 -7.597656 "/></g></g></g><g fill="#ffffff" fill-opacity="1"><g transform="translate(127.34504, 183.422801)"><g><path d="M 1.691406 -1.65625 C 5.183594 0.144531 8.386719 0.324219 9.828125 0.214844 C 14.652344 -0.0351562 17.605469 -3.3125 17.605469 -7.597656 C 17.605469 -11.699219 14.148438 -14.003906 10.152344 -15.480469 C 8.675781 -15.984375 7.414062 -16.632812 7.273438 -18.070312 C 7.164062 -19.511719 7.992188 -20.84375 9.828125 -20.953125 C 10.621094 -20.988281 12.238281 -21.023438 15.085938 -19.871094 L 15.730469 -24.839844 C 12.421875 -25.992188 10.65625 -25.992188 9.324219 -25.921875 C 5.039062 -25.703125 2.050781 -22.390625 2.050781 -18.070312 C 2.050781 -13.753906 5.652344 -11.699219 9.683594 -10.222656 C 11.125 -9.71875 12.238281 -9.070312 12.347656 -7.597656 C 12.492188 -6.191406 11.195312 -5.113281 9.683594 -5.003906 C 8.496094 -4.894531 5.292969 -4.96875 2.339844 -7.054688 Z M 1.691406 -1.65625 "/></g></g></g><g fill="#ffffff" fill-opacity="1"><g transform="translate(147.289075, 183.422801)"><g><path d="M 20.878906 0 L 20.878906 -25.738281 L 15.730469 -25.738281 L 15.730469 -15.445312 L 8.027344 -15.445312 L 8.027344 -25.738281 L 2.878906 -25.738281 L 2.878906 0 L 8.027344 0 L 8.027344 -10.296875 L 15.730469 -10.296875 L 15.730469 0 Z M 20.878906 0 "/></g></g></g><g fill="#ffffff" fill-opacity="1"><g transform="translate(171.985115, 183.422801)"><g><path d="M 14.6875 -14.832031 L 4.535156 -26.136719 L 2.878906 -26.136719 L 2.878906 0 L 8.101562 0 L 8.101562 -14.363281 L 14.6875 -7.453125 L 21.277344 -14.363281 L 21.238281 0 L 26.460938 0 L 26.460938 -26.136719 L 24.839844 -26.136719 Z M 14.6875 -14.832031 "/></g></g></g><g fill="#ffffff" fill-opacity="1"><g transform="translate(202.261168, 183.422801)"><g><path d="M 8.027344 0 L 8.027344 -25.738281 L 2.878906 -25.738281 L 2.878906 0 Z M 8.027344 0 "/></g></g></g><g fill="#ff3131" fill-opacity="1"><g transform="translate(213.951744, 183.422801)"><g><path d="M 1.152344 0 L 6.226562 0 C 11.304688 0 13.894531 -2.484375 13.894531 -7.738281 L 13.894531 -25.738281 L 8.675781 -25.738281 L 8.675781 -7.738281 C 8.675781 -6.300781 7.558594 -5.148438 6.085938 -5.148438 L 1.152344 -5.148438 Z M 1.152344 0 "/></g></g></g><g fill="#ff3131" fill-opacity="1"><g transform="translate(231.591774, 183.422801)"><g><path d="M 16.199219 0 L 16.199219 -5.148438 L 8.027344 -5.148438 L 8.027344 -10.296875 L 14.796875 -10.296875 L 14.796875 -15.445312 L 8.027344 -15.445312 L 8.027344 -20.59375 L 15.769531 -20.59375 L 15.769531 -25.738281 L 2.878906 -25.738281 L 2.878906 0 Z M 16.199219 0 "/></g></g></g><g fill="#ff3131" fill-opacity="1"><g transform="translate(250.63581, 183.422801)"><g><path d="M 10.765625 0.539062 L 11.664062 0.539062 L 16.34375 -10.980469 L 21.058594 0.433594 L 21.996094 0.433594 L 32.507812 -25.738281 L 26.710938 -25.738281 L 21.527344 -12.601562 L 16.488281 -25.488281 L 16.234375 -25.488281 L 11.195312 -12.601562 L 6.011719 -25.738281 L 0.214844 -25.738281 Z M 10.765625 0.539062 "/></g></g></g><g fill="#ff3131" fill-opacity="1"><g transform="translate(284.295871, 183.422801)"><g><path d="M 16.199219 0 L 16.199219 -5.148438 L 8.027344 -5.148438 L 8.027344 -10.296875 L 14.796875 -10.296875 L 14.796875 -15.445312 L 8.027344 -15.445312 L 8.027344 -20.59375 L 15.769531 -20.59375 L 15.769531 -25.738281 L 2.878906 -25.738281 L 2.878906 0 Z M 16.199219 0 "/></g></g></g><g fill="#ff3131" fill-opacity="1"><g transform="translate(303.339909, 183.422801)"><g><path d="M 2.878906 -25.738281 L 2.878906 0 L 16.199219 0 L 16.199219 -5.148438 L 8.027344 -5.148438 L 8.027344 -25.738281 Z M 2.878906 -25.738281 "/></g></g></g><g fill="#ff3131" fill-opacity="1"><g transform="translate(321.987947, 183.422801)"><g><path d="M 1.691406 -1.65625 C 5.183594 0.144531 8.386719 0.324219 9.828125 0.214844 C 14.652344 -0.0351562 17.605469 -3.3125 17.605469 -7.597656 C 17.605469 -11.699219 14.148438 -14.003906 10.152344 -15.480469 C 8.675781 -15.984375 7.414062 -16.632812 7.273438 -18.070312 C 7.164062 -19.511719 7.992188 -20.84375 9.828125 -20.953125 C 10.621094 -20.988281 12.238281 -21.023438 15.085938 -19.871094 L 15.730469 -24.839844 C 12.421875 -25.992188 10.65625 -25.992188 9.324219 -25.921875 C 5.039062 -25.703125 2.050781 -22.390625 2.050781 -18.070312 C 2.050781 -13.753906 5.652344 -11.699219 9.683594 -10.222656 C 11.125 -9.71875 12.238281 -9.070312 12.347656 -7.597656 C 12.492188 -6.191406 11.195312 -5.113281 9.683594 -5.003906 C 8.496094 -4.894531 5.292969 -4.96875 2.339844 -7.054688 Z M 1.691406 -1.65625 "/></g></g></g><g clip-path="url(#4e9874afb4)"><path fill="#b671ce" d="M 29.480469 150.84375 L 46.167969 167.421875 L 46.167969 144.304688 L 34.652344 141.269531 Z M 41.46875 172.5625 L 24.664062 155.980469 L 14.207031 161.933594 L 17.144531 172.5625 Z M 41.351562 179.683594 L 21.960938 179.683594 L 19.375 188.558594 L 27.71875 193.226562 Z M 46.167969 184.703125 L 36.648438 193.929688 L 39.703125 199.765625 L 46.167969 198.015625 Z M 52.867188 183.886719 L 52.867188 194.746094 L 57.800781 195.328125 L 60.152344 191.125 Z M 58.503906 179.683594 L 64.734375 186.570312 L 68.964844 184.238281 L 67.671875 179.683594 Z M 58.152344 172.5625 L 73.078125 172.5625 L 74.957031 165.671875 L 68.730469 162.285156 Z M 53.453125 167.890625 L 67.199219 154.113281 L 62.5 145.9375 L 52.984375 148.507812 Z M 53.453125 167.890625 " fill-opacity="1" fill-rule="evenodd"/></g><g clip-path="url(#d7ef740ca8)"><path fill="#02a89e" d="M 14.207031 161.933594 L 41.46875 172.5625 L 24.664062 155.980469 Z M 14.207031 161.933594 " fill-opacity="1" fill-rule="evenodd"/></g><g clip-path="url(#f86bfca95f)"><path fill="#2aabe4" d="M 29.480469 150.84375 L 46.167969 167.421875 L 34.652344 141.269531 Z M 29.480469 150.84375 " fill-opacity="1" fill-rule="evenodd"/></g><g clip-path="url(#07f471c5a9)"><path fill="#0071bd" d="M 34.652344 141.269531 L 46.167969 167.421875 L 46.167969 144.304688 Z M 34.652344 141.269531 " fill-opacity="1" fill-rule="evenodd"/></g><path fill="#952591" d="M 52.984375 148.507812 L 53.453125 167.890625 L 62.5 145.9375 Z M 52.984375 148.507812 " fill-opacity="1" fill-rule="evenodd"/><path fill="#652d92" d="M 62.5 145.9375 L 53.453125 167.890625 L 67.199219 154.113281 Z M 62.5 145.9375 " fill-opacity="1" fill-rule="evenodd"/><g clip-path="url(#f572211d03)"><path fill="#ee1f7a" d="M 68.730469 162.285156 L 58.152344 172.5625 L 74.957031 165.671875 Z M 68.730469 162.285156 " fill-opacity="1" fill-rule="evenodd"/></g><g clip-path="url(#613fd735db)"><path fill="#d3145a" d="M 74.957031 165.671875 L 58.152344 172.5625 L 73.078125 172.5625 Z M 74.957031 165.671875 " fill-opacity="1" fill-rule="evenodd"/></g><path fill="#ed1b24" d="M 67.671875 179.683594 L 58.503906 179.683594 L 68.964844 184.238281 Z M 67.671875 179.683594 " fill-opacity="1" fill-rule="evenodd"/><path fill="#c1262e" d="M 68.964844 184.238281 L 58.503906 179.683594 L 64.734375 186.570312 Z M 68.964844 184.238281 " fill-opacity="1" fill-rule="evenodd"/><path fill="#f8ed01" d="M 60.152344 191.125 L 52.867188 183.886719 L 57.800781 195.328125 Z M 60.152344 191.125 " fill-opacity="1" fill-rule="evenodd"/><path fill="#fab131" d="M 57.800781 195.328125 L 52.867188 183.886719 L 52.867188 194.746094 Z M 57.800781 195.328125 " fill-opacity="1" fill-rule="evenodd"/><g clip-path="url(#79e055f534)"><path fill="#fa9504" d="M 46.167969 198.015625 L 46.167969 184.703125 L 39.703125 199.765625 Z M 46.167969 198.015625 " fill-opacity="1" fill-rule="evenodd"/></g><g clip-path="url(#220aa86833)"><path fill="#f1422b" d="M 39.703125 199.765625 L 46.167969 184.703125 L 36.648438 193.929688 Z M 39.703125 199.765625 " fill-opacity="1" fill-rule="evenodd"/></g><path fill="#d6e100" d="M 27.71875 193.226562 L 41.351562 179.683594 L 19.375 188.558594 Z M 27.71875 193.226562 " fill-opacity="1" fill-rule="evenodd"/><path fill="#8bc731" d="M 19.375 188.558594 L 41.351562 179.683594 L 21.960938 179.683594 Z M 19.375 188.558594 " fill-opacity="1" fill-rule="evenodd"/><g clip-path="url(#4647cb7d8f)"><path fill="#23b375" d="M 17.144531 172.5625 L 41.46875 172.5625 L 14.207031 161.933594 Z M 17.144531 172.5625 " fill-opacity="1" fill-rule="evenodd"/></g></svg>